<?xml version="1.0" encoding="utf-8"?>
<!-- Generator: Adobe Illustrator 14.0.0, SVG Export Plug-In . SVG Version: 6.00 Build 43363)  -->
<!DOCTYPE svg PUBLIC "-//W3C//DTD SVG 1.1//EN" "http://www.w3.org/Graphics/SVG/1.1/DTD/svg11.dtd">
<svg version="1.1" id="Capa_1" xmlns="http://www.w3.org/2000/svg" xmlns:xlink="http://www.w3.org/1999/xlink" x="0px" y="0px"
	 width="50px" height="30px" viewBox="0 0 50 30" enable-background="new 0 0 50 30" xml:space="preserve">
<g>
	<path fill="#9C5A39" d="M23.724,0.063c0.854-0.085,1.719-0.085,2.573,0c1.366,0.03,2.724,0.242,4.06,0.522
		c1.719,0.394,3.425,0.937,4.953,1.829c1.332,0.725,2.5,1.753,3.34,3.012c0.515,0.852,0.876,1.831,0.822,2.836
		c-0.066,1.077-0.51,2.112-1.178,2.956c-0.766,1.033-1.806,1.826-2.901,2.488c-1.489,0.823-3.09,1.453-4.756,1.814
		c-0.947,0.153-1.902,0.251-2.848,0.409c-0.473,0.064-0.944,0.155-1.421,0.183c-0.009,0.594-0.01,1.189,0,1.783
		c1.953,0.039,3.908-0.013,5.86,0.025c0.067,0.602,0.017,1.214,0.025,1.82c-1.961,0.013-3.925-0.006-5.887,0.008
		c-0.009,0.296,0.002,0.59-0.007,0.886c-0.898,0.007-1.798,0.007-2.697,0c-0.009-0.295,0.002-0.59-0.007-0.886
		c-1.962-0.014-3.924,0.005-5.887-0.008c0.007-0.606-0.042-1.218,0.025-1.821c1.952-0.04,3.907,0.021,5.859-0.029
		c0.01-0.591,0.015-1.183-0.003-1.773c-1.404-0.168-2.8-0.402-4.203-0.589c-1.38-0.303-2.742-0.739-3.995-1.396
		c-1.112-0.535-2.148-1.229-3.048-2.071c-0.434-0.45-0.808-0.953-1.146-1.477c-0.726-1.136-0.901-2.577-0.526-3.863
		c0.328-1.028,0.989-1.914,1.742-2.678c0.758-0.717,1.623-1.317,2.547-1.805c1.62-0.891,3.42-1.389,5.222-1.772
		C21.391,0.258,22.554,0.087,23.724,0.063 M13.491,4.366c-0.601,0.513-1.089,1.143-1.505,1.808
		c-0.423,0.753-0.639,1.649-0.472,2.507c0.167,1.06,0.827,1.961,1.547,2.729c0.599,0.564,1.271,1.046,1.967,1.487
		c1.694,0.985,3.58,1.617,5.508,1.964c0.375,0.062,0.747,0.164,1.13,0.14c-0.144-0.1-0.298-0.181-0.452-0.261
		c-1.952-1.121-3.446-3.087-3.79-5.32c-0.132-0.656-0.061-1.326-0.079-1.989c0.111-1.6,0.76-3.168,1.845-4.361
		c0.252-0.298,0.564-0.539,0.842-0.813c0.478-0.451,1.071-0.75,1.629-1.083c-0.055,0.002-0.166,0.007-0.221,0.01
		C18.587,1.568,15.735,2.528,13.491,4.366 M28.287,1.179c0.238,0.172,0.525,0.258,0.768,0.423c0.481,0.313,0.949,0.657,1.349,1.069
		c1.225,1.154,2.017,2.741,2.226,4.401c0.087,0.53,0.028,1.069,0.046,1.603c-0.112,1.336-0.564,2.651-1.358,3.74
		c-0.437,0.589-0.909,1.164-1.502,1.605c-0.476,0.426-1.053,0.709-1.598,1.033c1.992-0.255,3.965-0.759,5.775-1.634
		c0.985-0.456,1.9-1.063,2.698-1.795c0.316-0.212,0.518-0.54,0.777-0.812c0.568-0.692,0.977-1.531,1.091-2.422
		c0.065-0.595-0.084-1.192-0.302-1.744c-0.259-0.634-0.688-1.182-1.13-1.702c-0.357-0.406-0.79-0.736-1.223-1.058
		c-0.579-0.403-1.175-0.788-1.817-1.085c-1.492-0.773-3.135-1.204-4.78-1.518C28.967,1.239,28.63,1.154,28.287,1.179 M2.271,24.051
		c0.943-0.301,1.96-0.408,2.941-0.248c0.55,0.074,1.113,0.204,1.592,0.493c0.009,0.453,0.002,0.906,0.003,1.359
		c-0.657-0.306-1.349-0.562-2.081-0.606c-0.783-0.052-1.64,0.057-2.269,0.561c-0.532,0.41-0.774,1.167-0.536,1.798
		c0.1,0.341,0.373,0.592,0.642,0.811c0.453,0.362,1.049,0.465,1.61,0.533c0.326-0.008,0.642-0.109,0.966-0.133
		c0.636-0.054,1.191-0.4,1.802-0.555c0,0.43,0.022,0.862-0.008,1.291C6.848,29.446,6.721,29.48,6.61,29.53
		c-0.601,0.243-1.239,0.395-1.883,0.464c-0.635-0.015-1.284,0.066-1.904-0.108c-0.959-0.181-1.872-0.712-2.404-1.538
		c-0.48-0.742-0.555-1.728-0.188-2.532C0.612,24.971,1.41,24.365,2.271,24.051 M10.786,23.762c0.572-0.083,1.149,0.003,1.713,0.099
		c0.966,0.171,1.853,0.734,2.411,1.536c0.275,0.424,0.449,0.924,0.432,1.434c0.035,0.796-0.368,1.562-0.958,2.083
		c-0.675,0.642-1.589,0.998-2.513,1.082c-0.589-0.013-1.191,0.058-1.768-0.104c-1.14-0.255-2.237-0.98-2.693-2.08
		c-0.187-0.478-0.173-1.01-0.097-1.508c0.094-0.547,0.428-1.012,0.791-1.418C8.819,24.196,9.802,23.837,10.786,23.762
		 M10.786,25.072c-0.709,0.109-1.435,0.543-1.639,1.263c-0.127,0.558-0.086,1.204,0.3,1.659c0.436,0.567,1.193,0.709,1.867,0.764
		c0.583-0.04,1.191-0.181,1.646-0.567c0.354-0.307,0.523-0.771,0.575-1.224c0.043-0.696-0.392-1.371-1.016-1.674
		C11.986,25.029,11.368,24.993,10.786,25.072 M36.825,24.07c1.089-0.375,2.278-0.44,3.404-0.198c0.406,0.097,0.827,0.194,1.18,0.425
		c0.008,0.452,0.002,0.906,0.003,1.359c-0.95-0.447-2.015-0.753-3.073-0.57c-0.588,0.083-1.166,0.351-1.551,0.807
		c-0.438,0.533-0.445,1.356-0.029,1.903c0.313,0.428,0.812,0.687,1.315,0.828c0.352,0.076,0.718,0.184,1.078,0.091
		c0.351-0.079,0.712-0.101,1.061-0.188c0.449-0.133,0.873-0.343,1.329-0.457c0.015,0.43,0.012,0.861,0.005,1.292
		c-0.639,0.349-1.366,0.517-2.084,0.62c-0.459,0.025-0.921,0.007-1.381,0.01c-0.989-0.088-2-0.447-2.688-1.183
		c-0.942-0.889-1.04-2.497-0.236-3.505C35.599,24.767,36.154,24.299,36.825,24.07 M45.324,23.764
		c0.433-0.053,0.874-0.046,1.305,0.018c1.196,0.103,2.382,0.735,3.001,1.774c0.254,0.423,0.341,0.921,0.369,1.406
		c-0.073,0.677-0.333,1.365-0.867,1.817c-0.642,0.711-1.577,1.107-2.521,1.212c-0.37,0.017-0.74-0.003-1.109,0.007
		c-0.442,0.015-0.875-0.105-1.293-0.233c-0.537-0.167-0.992-0.507-1.421-0.855c-0.575-0.525-0.961-1.29-0.9-2.078
		c-0.036-1.042,0.703-1.937,1.556-2.459C44.002,24.003,44.669,23.856,45.324,23.764 M45.459,25.067
		c-0.644,0.068-1.231,0.439-1.57,0.984c-0.337,0.678-0.234,1.585,0.344,2.107c0.442,0.436,1.089,0.548,1.685,0.6
		c0.536-0.038,1.109-0.127,1.541-0.47c0.632-0.464,0.861-1.378,0.548-2.089c-0.117-0.332-0.4-0.566-0.66-0.79
		C46.803,25.034,46.099,24.992,45.459,25.067 M15.896,23.809c0.622-0.013,1.245,0.001,1.868-0.004
		c0.56,0.007,1.122-0.028,1.678,0.05c0.944,0.028,1.916,0.338,2.608,0.995c1.088,1.002,1.14,2.883,0.138,3.96
		c-0.534,0.592-1.324,0.858-2.083,1.03c-0.541,0.131-1.098,0.075-1.647,0.086c-0.854-0.004-1.708,0.007-2.562-0.004
		C15.888,27.884,15.887,25.847,15.896,23.809 M17.641,24.984c0.037,1.27-0.031,2.542,0.017,3.811
		c0.715,0.005,1.451,0.073,2.144-0.148c0.535-0.163,0.996-0.582,1.162-1.117c0.336-0.872-0.102-1.984-0.982-2.347
		C19.239,24.88,18.42,24.983,17.641,24.984 M23.468,23.822c1.612-0.044,3.226-0.001,4.839-0.021
		c0.119,0.011,0.347-0.033,0.338,0.152c0.021,0.336,0.01,0.674-0.005,1.011c-1.127,0.028-2.255-0.003-3.383,0.015
		c-0.01,0.41-0.01,0.82,0,1.229c1.06,0.015,2.121-0.006,3.182,0.008c0.01,0.365,0.01,0.731-0.001,1.097
		c-1.058,0.031-2.117,0.002-3.176,0.012c-0.017,0.499-0.011,0.998-0.004,1.497c1.134,0.014,2.271-0.007,3.405,0.009
		c0.025,0.363,0.026,0.727,0,1.09c-1.736,0.01-3.472,0.008-5.208,0.001c-0.011-1.809,0-3.619-0.005-5.429
		C23.443,24.269,23.446,24.045,23.468,23.822 M29.314,23.843c0.115-0.057,0.25-0.035,0.375-0.042
		c0.461,0.01,0.923-0.006,1.384,0.009c0.018,1.667-0.011,3.336,0.014,5.004c0.713-0.026,1.427,0.001,2.141-0.006
		c0.483,0.01,0.968-0.038,1.45,0.017c0.013,0.365,0.012,0.731,0.002,1.097c-1.8,0.007-3.601,0.008-5.401,0
		c-0.012-1.925,0.003-3.85-0.007-5.775C29.279,24.045,29.263,23.935,29.314,23.843L29.314,23.843z"/>
</g>
</svg>
