<?xml version="1.0" encoding="UTF-8"?>
<svg xmlns="http://www.w3.org/2000/svg" id="Layer_1" data-name="Layer 1" viewBox="0 0 150 73">
  <defs>
    <style>.cls-1{fill:#fff;}.cls-2{fill:#ff2d3e;}</style>
  </defs>
  <path class="cls-1" d="M43.61,18.31v0a7.87,7.87,0,0,1,8.08-8,7.49,7.49,0,0,1,6.5,3.19L55,16a4.11,4.11,0,0,0-3.35-1.8,3.79,3.79,0,0,0-3.66,4v.05a3.79,3.79,0,0,0,3.66,4.09,4.18,4.18,0,0,0,3.46-1.86l3.19,2.28a8.07,8.07,0,0,1-14.69-4.47Z"></path>
  <path class="cls-1" d="M59.16,18.31v0a8.26,8.26,0,0,1,16.51-.05v.05a8.26,8.26,0,0,1-16.51,0Zm12.17,0v0a4,4,0,0,0-3.94-4.14,3.91,3.91,0,0,0-3.88,4.09v.05a4,4,0,0,0,3.92,4.13A3.91,3.91,0,0,0,71.33,18.31Z"></path>
  <path class="cls-1" d="M77.88,10.6h4l6.31,8.1V10.6h4.2V25.93H88.63l-6.55-8.41v8.41h-4.2Z"></path>
  <path class="cls-1" d="M61.81,32.62h-4.6V28.9H70.65v3.72H66.06v11.6H61.81Z"></path>
  <path class="cls-1" d="M75.84,28.79h4.1l6.52,15.43H81.91l-1.12-2.73H74.88l-1.09,2.73H69.32Zm3.73,9.39-1.71-4.36-1.73,4.36Z"></path>
  <path class="cls-1" d="M88,28.9h4.27V44.22H88Z"></path>
  <path class="cls-1" d="M95.11,28.9h4l6.31,8.1V28.9h4.2V44.22h-3.72l-6.55-8.4v8.4h-4.2Z"></path>
  <path class="cls-1" d="M112.3,28.9h12.32v3.61H116.5v2.32h7.36v3.35H116.5v2.43h8.23v3.61H112.3Z"></path>
  <path class="cls-1" d="M126.9,28.9h7.25a6.7,6.7,0,0,1,5,1.66,4.75,4.75,0,0,1,1.36,3.57v0a4.84,4.84,0,0,1-3.16,4.71L141,44.22h-4.9L133,39.58h-1.86v4.64H126.9Zm7,7.35c1.45,0,2.28-.7,2.28-1.81v0c0-1.2-.88-1.81-2.3-1.81h-2.78v3.67Z"></path>
  <path class="cls-1" d="M47,47H51.2V58.58h7.42V62.3H47Z"></path>
  <path class="cls-1" d="M65.74,46.86h4.09L76.36,62.3H71.8l-1.11-2.74H64.78l-1.1,2.74H59.21Zm3.72,9.39L67.75,51.9,66,56.25Z"></path>
  <path class="cls-1" d="M77.85,47h4l6.31,8.1V47h4.2V62.3H88.6l-6.55-8.41V62.3h-4.2Z"></path>
  <path class="cls-1" d="M95,47h5.91c5.48,0,8.65,3.15,8.65,7.58v0c0,4.42-3.22,7.71-8.73,7.71H95Zm6,11.56c2.54,0,4.23-1.4,4.23-3.87v0c0-2.45-1.69-3.87-4.23-3.87H99.28v7.79Z"></path>
  <path class="cls-2" d="M25.42,17.61,10,26.66V44.54l15.41,9.07,15.41-9.07V26.66ZM36.48,32.37,25.37,38.92l-11-6.5V29.17l11.07-6.53,4.39,2.59-9.26,5.44,4.27,2.51,9.24-5.45,2.42,1.43ZM25.36,44h0l11.1-6.55V42L25.42,48.56,14.35,42V37.46Z"></path>
</svg>
